<svg xmlns="http://www.w3.org/2000/svg" viewBox="0 0 1.76 2.1"><defs><style>.cls-1{fill:#fff;}.cls-2{fill:#0077b5;}.cls-3{font-size:1.23px;font-family:Roboto-Regular, Roboto;}</style></defs><title>A-icon</title><g id="Layer_3" data-name="Layer 3"><circle class="cls-1" cx="0.88" cy="0.88" r="0.8"/><path class="cls-2" d="M1.54.29A.88.88,0,0,0,.23.29a.86.86,0,0,0,0,1.18A.88.88,0,1,0,1.54.29ZM1.42,1.43a.76.76,0,0,1-1.08,0,.78.78,0,0,1,0-1.1.78.78,0,0,1,1.08,0A.77.77,0,0,1,1.42,1.43ZM-.37,50.94m0-100.09M.26,1.51m55.24.63-100,0M.26,1.51l.57.57a.07.07,0,0,0,.1,0l.58-.57-.3.16L1,1.75.71,1.7.44,1.58.29,1.47Zm1,.16"/><text class="cls-3" transform="translate(0.48 1.28)">A</text></g></svg>